<mxfile host="65bd71144e">
    <diagram id="g_lEpD14n2W2eyyvPf0N" name="Page-1">
        <mxGraphModel dx="1413" dy="797" grid="0" gridSize="10" guides="1" tooltips="1" connect="1" arrows="1" fold="1" page="1" pageScale="1" pageWidth="850" pageHeight="1100" math="0" shadow="0">
            <root>
                <mxCell id="0"/>
                <mxCell id="1" parent="0"/>
                <mxCell id="5" style="edgeStyle=none;curved=1;rounded=0;orthogonalLoop=1;jettySize=auto;html=1;entryX=0;entryY=0.5;entryDx=0;entryDy=0;endArrow=open;startSize=14;endSize=14;sourcePerimeterSpacing=8;targetPerimeterSpacing=8;" edge="1" parent="1" source="2" target="4">
                    <mxGeometry relative="1" as="geometry"/>
                </mxCell>
                <mxCell id="7" style="edgeStyle=none;curved=1;rounded=0;orthogonalLoop=1;jettySize=auto;html=1;entryX=0;entryY=0.5;entryDx=0;entryDy=0;endArrow=open;startSize=14;endSize=14;sourcePerimeterSpacing=8;targetPerimeterSpacing=8;" edge="1" parent="1" source="2" target="6">
                    <mxGeometry relative="1" as="geometry"/>
                </mxCell>
                <mxCell id="2" value="usuario" style="shape=umlActor;verticalLabelPosition=bottom;verticalAlign=top;html=1;fillColor=#ffe6cc;strokeColor=#d79b00;" vertex="1" parent="1">
                    <mxGeometry x="206" y="254" width="30" height="60" as="geometry"/>
                </mxCell>
                <mxCell id="4" value="Busqueda general de acreditados&lt;br&gt;(sin filtros de busqueda)" style="ellipse;whiteSpace=wrap;html=1;fillColor=#fff2cc;strokeColor=#d6b656;" vertex="1" parent="1">
                    <mxGeometry x="358" y="162" width="178" height="87" as="geometry"/>
                </mxCell>
                <mxCell id="6" value="Busqueda especifica de acreditados&lt;br&gt;(filtros de busqueda)" style="ellipse;whiteSpace=wrap;html=1;fillColor=#fff2cc;strokeColor=#d6b656;" vertex="1" parent="1">
                    <mxGeometry x="355" y="305" width="184" height="90" as="geometry"/>
                </mxCell>
                <mxCell id="14" style="edgeStyle=none;curved=1;rounded=0;orthogonalLoop=1;jettySize=auto;html=1;entryX=0;entryY=0.5;entryDx=0;entryDy=0;fontFamily=Helvetica;fontSize=12;endArrow=open;startSize=14;endSize=14;sourcePerimeterSpacing=8;targetPerimeterSpacing=8;" edge="1" parent="1" source="10" target="13">
                    <mxGeometry relative="1" as="geometry"/>
                </mxCell>
                <mxCell id="10" value="Administrador" style="shape=umlActor;verticalLabelPosition=bottom;verticalAlign=top;html=1;fillColor=#dae8fc;strokeColor=#6c8ebf;" vertex="1" parent="1">
                    <mxGeometry x="189" y="486" width="30" height="60" as="geometry"/>
                </mxCell>
                <mxCell id="12" value="&lt;span style=&quot;font-size:11.0pt;line-height:&lt;br/&gt;107%;font-family:&amp;quot;Dubai&amp;quot;,sans-serif;mso-fareast-font-family:Calibri;mso-fareast-theme-font:&lt;br/&gt;minor-latin;mso-ansi-language:ES;mso-fareast-language:EN-US;mso-bidi-language:&lt;br/&gt;AR-SA&quot; lang=&quot;ES&quot;&gt;Organismo de Acreditación&lt;/span&gt;" style="shape=umlActor;verticalLabelPosition=bottom;verticalAlign=top;html=1;fillColor=#dae8fc;strokeColor=#6c8ebf;" vertex="1" parent="1">
                    <mxGeometry x="189" y="667" width="30" height="60" as="geometry"/>
                </mxCell>
                <mxCell id="13" value="&lt;span style=&quot;line-height: 107%;&quot; lang=&quot;ES&quot;&gt;G&lt;/span&gt;&lt;span style=&quot;font-size:11.0pt;line-height:&lt;br/&gt;107%;font-family:&amp;quot;Dubai&amp;quot;,sans-serif;mso-fareast-font-family:Calibri;mso-fareast-theme-font:&lt;br/&gt;minor-latin;mso-ansi-language:ES;mso-fareast-language:EN-US;mso-bidi-language:&lt;br/&gt;AR-SA&quot; lang=&quot;ES&quot;&gt;estión de los Organismos de Acreditación&lt;/span&gt;" style="ellipse;whiteSpace=wrap;html=1;fillColor=#dae8fc;strokeColor=#6c8ebf;" vertex="1" parent="1">
                    <mxGeometry x="338" y="471" width="184" height="90" as="geometry"/>
                </mxCell>
                <mxCell id="15" value="&lt;p align=&quot;center&quot; class=&quot;MsoNormal&quot;&gt;&lt;b style=&quot;font-size: 14px;&quot;&gt;&lt;span lang=&quot;ES&quot;&gt;&lt;font color=&quot;#0066cc&quot;&gt;BUSCADOR ANDINO&amp;nbsp;&lt;/font&gt;&lt;/span&gt;&lt;/b&gt;&lt;/p&gt;&lt;p align=&quot;center&quot; class=&quot;MsoNormal&quot;&gt;&lt;b style=&quot;font-size: 14px;&quot;&gt;&lt;span lang=&quot;ES&quot;&gt;&lt;font color=&quot;#0066cc&quot;&gt;DE LOS ORGANISMOS DE EVALUACIÓN DE LA CONFORMIDAD ACREDITADOS&amp;nbsp;&lt;/font&gt;&lt;/span&gt;&lt;/b&gt;&lt;/p&gt;" style="text;html=1;align=center;verticalAlign=middle;resizable=0;points=[];autosize=1;strokeColor=none;fillColor=none;fontSize=12;fontFamily=Helvetica;" vertex="1" parent="1">
                    <mxGeometry x="156" y="27" width="555" height="82" as="geometry"/>
                </mxCell>
            </root>
        </mxGraphModel>
    </diagram>
</mxfile>